<?xml version="1.0" standalone="no"?>
<svg role="presentation" id="art-topology" viewBox="1572 644 900 900" width="100%" height="auto" xmlns="http://www.w3.org/2000/svg" style="background-color:#FAF9F8"><g role="presentation" tabIndex="-1" transform="matrix(0.775918, 0, 0, 0.775918, 1707, 815)"><g role="group" transform="translate(399, 399)" class="node-outer undimmed" aria-label="West Europe" tabindex="0"><g role="presentation" class="expanded-node"><g aria-hidden="false"><g><defs><filter id="blur" x="0" y="0"><feGaussianBlur in="SourceGraphic" stdDeviation="2"></feGaussianBlur></filter></defs><g class="large-expanded-group" transform="translate(-399,-399)" filter=""><rect class="outer-rect" rx="4px" ry="4px" width="798px" height="798px" stroke="#bbb" fill="#FFFFFF"></rect><g class="group-header"><rect class="header-outer-rect" width="798px" height="40px"></rect><g transform="translate(698, 0)"><foreignObject width="100" height="40"><div class="ms-OverflowSet node-command-bar root-296" role="menubar" aria-orientation="horizontal"><div class="ms-OverflowSet-item item-189" role="none"><button type="button" role="menuitem" aria-label="Collapse" class="ms-Button ms-Button--commandBar root-297" data-is-focusable="true"><span class="ms-Button-flexContainer flexContainer-177" data-automationid="splitbuttonprimary"><i data-icon-name="CollapseContent" aria-hidden="true" class="ms-Icon root-109 css-300 ms-Button-icon icon-292" style="font-family: &quot;FabricMDL2Icons-9&quot;;"></i></span></button></div><div class="ms-OverflowSet-overflowButton overflowButton-190"><button type="button" role="menuitem" title="More items" class="ms-Button ms-Button--commandBar ms-Button--hasMenu root-297" data-is-focusable="true" aria-expanded="false" aria-haspopup="true"><span class="ms-Button-flexContainer flexContainer-177" data-automationid="splitbuttonprimary"><i data-icon-name="More" aria-hidden="true" class="ms-Icon root-109 css-174 ms-Button-menuIcon menuIcon-301" style="font-family: &quot;FabricMDL2Icons&quot;;"></i></span></button></div></div></foreignObject></g><a listener="true"><svg aria-hidden="false" x="12" y="12" height="30" width="30"><svg height="30" width="30" preserveAspectRatio="none" id="b2b8e2bf-1dde-4fb6-9775-24e6035b15cc" xmlns="http://www.w3.org/2000/svg" viewBox="0 0 18 18"><defs><linearGradient id="a08e1e00-f62f-47db-8ba0-acb0e5cadf15" x1="9" y1="0.461" x2="9" y2="17.539" gradientUnits="userSpaceOnUse"><stop offset="0" stop-color="#b77af4"></stop><stop offset="0.621" stop-color="#8c4fe4"></stop><stop offset="0.997" stop-color="#773adc"></stop></linearGradient></defs><path d="M9,.461A5.191,5.191,0,0,0,3.972,5.878c0,2.363,3,7.9,4.365,11.217a.713.713,0,0,0,1.322,0c1.364-3.343,4.369-8.927,4.369-11.215A5.254,5.254,0,0,0,9,.461ZM9,7.8a2.235,2.235,0,1,1,2.235-2.235A2.235,2.235,0,0,1,9,7.8Z" fill="url(#a08e1e00-f62f-47db-8ba0-acb0e5cadf15)"></path></svg><rect height="30" width="30" class="clear-rect"><title></title></rect></svg><g aria-hidden="false" transform="translate(54, 28)" class="node-title" style="font-size: 15px;"><text y="0" x="0" class="text"><title>West Europe</title><tspan>West Europe</tspan></text><text y="15" x="0" class="sub-text"><title>Region</title><tspan>Region</tspan></text></g></a></g><svg class="node-content-overflow"><g transform="translate(50,50)"><g class="edge" role="presentation"><path data-id="bundle_ebea6d3c-5ba3-4d23-8805-ff74679e335fdbb9001b-7e7b-4699-84fa-ab079d935dae" class="edge-path  unknown-health-edge-path" aria-label="peer-hub-to-spoke1" style="stroke-width: 2px;" d="M215,116.173L237.5,155.144C260,194.115,305,272.058,305,350C305,427.942,260,505.885,237.5,544.856L215,583.827" marker-start="" marker-end=""></path></g><g transform="translate(304.9999694824219, 350.04425048828125)" role="presentation"><g role="presentation"><g role="presentation" class="edge-label undimmed"><a href="#" tabindex="0" aria-label="" role="button" aria-expanded="false" focusable="true"><g aria-hidden="false"><g class="svg-pill button-pill"><ellipse class="pill" cx="0" cy="0" ry="0.8" rx="0.8800000000000001"></ellipse><g class="pill-content"><text y="0.8" x="0" class="pill-text" style="font-size: 2.5px;">2</text></g></g></g></a></g></g></g><g class="edge" role="presentation"><path data-id="bundle_dbb9001b-7e7b-4699-84fa-ab079d935daea4858d12-28e7-43f3-a624-4fdba8845481" class="edge-path  unknown-health-edge-path" aria-label="peer-hub-to-spoke2" style="stroke-width: 2px;" d="M215,116.173L237.5,155.144C260,194.115,305,272.058,372.5,311.029C440,350,530,350,575,350L620,350" marker-start="" marker-end=""></path></g><g transform="translate(372.4999694824219, 311.02899169921875)" role="presentation"><g role="presentation"><g role="presentation" class="edge-label undimmed"><a href="#" tabindex="0" aria-label="" role="button" aria-expanded="false" focusable="true"><g aria-hidden="false"><g class="svg-pill button-pill"><ellipse class="pill" cx="0" cy="0" ry="0.8" rx="0.8800000000000001"></ellipse><g class="pill-content"><text y="0.8" x="0" class="pill-text" style="font-size: 2.5px;">2</text></g></g></g></a></g></g></g><g role="group" transform="translate(214.9999999999999, 116.17314097820162)" class="node-outer undimmed" aria-label="vnet-hub-dev" tabindex="0"><g role="presentation" class="resource-node"><g aria-hidden="false"><g><a listener="true"><circle r="28" cx="0" cy="0" class="contrast-circle" filter="" style="stroke-width: 2px;" tabindex="0"></circle><svg aria-hidden="false" x="-15" y="-15" height="30" width="30"><svg id="a1606a52-fb14-4637-87de-4d524bba1829" viewBox="0 0 18 18" height="30" width="30" preserveAspectRatio="none"><defs><linearGradient id="f020fb7e-2243-4501-8153-5d69bd3c34f7" x1="9.88" y1="8.59" x2="11.52" y2="10.23" gradientTransform="translate(2.03 -0.4) rotate(-0.08)" gradientUnits="userSpaceOnUse"><stop offset="0" stop-color="#86d633"></stop><stop offset="0.24" stop-color="#83d232"></stop><stop offset="0.5" stop-color="#7cc52f"></stop><stop offset="0.76" stop-color="#6fb02a"></stop><stop offset="1" stop-color="#5e9624"></stop></linearGradient><linearGradient id="b3c2bc94-8c7c-48a2-9719-6ee899a43a97" x1="6.18" y1="8.59" x2="7.81" y2="10.23" href="#f020fb7e-2243-4501-8153-5d69bd3c34f7"></linearGradient><linearGradient id="e900c35d-0958-4d4f-b28f-302eeaaf52f5" x1="2.48" y1="8.59" x2="4.11" y2="10.23" href="#f020fb7e-2243-4501-8153-5d69bd3c34f7"></linearGradient></defs><title>Icon-networking-61</title><circle cx="12.74" cy="8.99" r="1.16" fill="url(#f020fb7e-2243-4501-8153-5d69bd3c34f7)"></circle><circle cx="9.04" cy="9" r="1.16" fill="url(#b3c2bc94-8c7c-48a2-9719-6ee899a43a97)"></circle><circle cx="5.34" cy="9" r="1.16" fill="url(#e900c35d-0958-4d4f-b28f-302eeaaf52f5)"></circle><path d="M2.61,7.28h.94a.3.3,0,0,1,.3.3v6.94a.6.6,0,0,1-.6.6H2.31a0,0,0,0,1,0,0V7.58a.3.3,0,0,1,.3-.3Z" transform="translate(13.18 16.93) rotate(134.92)" fill="#50e6ff"></path><path d="M2.56,2.91H3.5a.3.3,0,0,1,.3.3v7.43a0,0,0,0,1,0,0H2.86a.6.6,0,0,1-.6-.6V3.21a.3.3,0,0,1,.3-.3Z" transform="translate(5.66 -0.16) rotate(44.92)" fill="#1490df"></path><path d="M14.15,7.28h.94a.6.6,0,0,1,.6.6v6.94a.3.3,0,0,1-.3.3h-.94a.3.3,0,0,1-.3-.3V7.28a0,0,0,0,1,0,0Z" transform="translate(12.32 -7.28) rotate(45.08)" fill="#50e6ff"></path><path d="M14.81,2.91h.94a0,0,0,0,1,0,0v7.43a.3.3,0,0,1-.3.3H14.5a.3.3,0,0,1-.3-.3V3.51a.6.6,0,0,1,.6-.6Z" transform="translate(30.36 0.99) rotate(135.08)" fill="#1490df"></path></svg><rect height="30" width="30" class="clear-rect"><title>vnet-hub-dev</title></rect></svg><g aria-hidden="false" transform="translate(0, 43)" class="node-title" style="font-size: 15px;"><text y="0" x="0" class="text"><title>vnet-hub-dev</title><tspan>vnet-hub-dev</tspan></text></g></a><svg aria-hidden="false" x="14" y="-28" height="37.5" width="37.5"><a role="button" class="cursor-pointer" aria-label="Expand" tabindex="0"><svg height="15" width="15" viewBox="0 0 16 16" fill="none" xmlns="http://www.w3.org/2000/svg"><circle cx="8" cy="8" r="8" fill="#0078D4"></circle><path d="M8.53353 7.46662V3.19995H7.46686V7.46662H3.2002V8.53328H7.46686V12.8H8.53353V8.53328H12.8002V7.46662H8.53353Z" fill="white"></path></svg></a></svg></g></g></g></g><g role="group" transform="translate(215.00000000000006, 583.8268590217984)" class="node-outer undimmed" aria-label="vnet-spoke1-dev" tabindex="0"><g role="presentation" class="resource-node"><g aria-hidden="false"><g><a listener="true"><circle r="28" cx="0" cy="0" class="contrast-circle" filter="" style="stroke-width: 2px;" tabindex="0"></circle><svg aria-hidden="false" x="-15" y="-15" height="30" width="30"><svg id="a1606a52-fb14-4637-87de-4d524bba1829" viewBox="0 0 18 18" height="30" width="30" preserveAspectRatio="none"><defs><linearGradient id="f020fb7e-2243-4501-8153-5d69bd3c34f7" x1="9.88" y1="8.59" x2="11.52" y2="10.23" gradientTransform="translate(2.03 -0.4) rotate(-0.08)" gradientUnits="userSpaceOnUse"><stop offset="0" stop-color="#86d633"></stop><stop offset="0.24" stop-color="#83d232"></stop><stop offset="0.5" stop-color="#7cc52f"></stop><stop offset="0.76" stop-color="#6fb02a"></stop><stop offset="1" stop-color="#5e9624"></stop></linearGradient><linearGradient id="b3c2bc94-8c7c-48a2-9719-6ee899a43a97" x1="6.18" y1="8.59" x2="7.81" y2="10.23" href="#f020fb7e-2243-4501-8153-5d69bd3c34f7"></linearGradient><linearGradient id="e900c35d-0958-4d4f-b28f-302eeaaf52f5" x1="2.48" y1="8.59" x2="4.11" y2="10.23" href="#f020fb7e-2243-4501-8153-5d69bd3c34f7"></linearGradient></defs><title>Icon-networking-61</title><circle cx="12.74" cy="8.99" r="1.16" fill="url(#f020fb7e-2243-4501-8153-5d69bd3c34f7)"></circle><circle cx="9.04" cy="9" r="1.16" fill="url(#b3c2bc94-8c7c-48a2-9719-6ee899a43a97)"></circle><circle cx="5.34" cy="9" r="1.16" fill="url(#e900c35d-0958-4d4f-b28f-302eeaaf52f5)"></circle><path d="M2.61,7.28h.94a.3.3,0,0,1,.3.3v6.94a.6.6,0,0,1-.6.6H2.31a0,0,0,0,1,0,0V7.58a.3.3,0,0,1,.3-.3Z" transform="translate(13.18 16.93) rotate(134.92)" fill="#50e6ff"></path><path d="M2.56,2.91H3.5a.3.3,0,0,1,.3.3v7.43a0,0,0,0,1,0,0H2.86a.6.6,0,0,1-.6-.6V3.21a.3.3,0,0,1,.3-.3Z" transform="translate(5.66 -0.16) rotate(44.92)" fill="#1490df"></path><path d="M14.15,7.28h.94a.6.6,0,0,1,.6.6v6.94a.3.3,0,0,1-.3.3h-.94a.3.3,0,0,1-.3-.3V7.28a0,0,0,0,1,0,0Z" transform="translate(12.32 -7.28) rotate(45.08)" fill="#50e6ff"></path><path d="M14.81,2.91h.94a0,0,0,0,1,0,0v7.43a.3.3,0,0,1-.3.3H14.5a.3.3,0,0,1-.3-.3V3.51a.6.6,0,0,1,.6-.6Z" transform="translate(30.36 0.99) rotate(135.08)" fill="#1490df"></path></svg><rect height="30" width="30" class="clear-rect"><title>vnet-spoke1-dev</title></rect></svg><g aria-hidden="false" transform="translate(0, 43)" class="node-title" style="font-size: 15px;"><text y="0" x="0" class="text"><title>vnet-spoke1-dev</title><tspan>vnet-spoke1-dev</tspan></text></g></a><svg aria-hidden="false" x="14" y="-28" height="37.5" width="37.5"><a role="button" class="cursor-pointer" aria-label="Expand" tabindex="0"><svg height="15" width="15" viewBox="0 0 16 16" fill="none" xmlns="http://www.w3.org/2000/svg"><circle cx="8" cy="8" r="8" fill="#0078D4"></circle><path d="M8.53353 7.46662V3.19995H7.46686V7.46662H3.2002V8.53328H7.46686V12.8H8.53353V8.53328H12.8002V7.46662H8.53353Z" fill="white"></path></svg></a></svg></g></g></g></g><g role="group" transform="translate(620, 350)" class="node-outer undimmed" aria-label="vnet-spoke2-dev" tabindex="0"><g role="presentation" class="resource-node"><g aria-hidden="false"><g><a listener="true"><circle r="28" cx="0" cy="0" class="contrast-circle" filter="" style="stroke-width: 2px;" tabindex="0"></circle><svg aria-hidden="false" x="-15" y="-15" height="30" width="30"><svg id="a1606a52-fb14-4637-87de-4d524bba1829" viewBox="0 0 18 18" height="30" width="30" preserveAspectRatio="none"><defs><linearGradient id="f020fb7e-2243-4501-8153-5d69bd3c34f7" x1="9.88" y1="8.59" x2="11.52" y2="10.23" gradientTransform="translate(2.03 -0.4) rotate(-0.08)" gradientUnits="userSpaceOnUse"><stop offset="0" stop-color="#86d633"></stop><stop offset="0.24" stop-color="#83d232"></stop><stop offset="0.5" stop-color="#7cc52f"></stop><stop offset="0.76" stop-color="#6fb02a"></stop><stop offset="1" stop-color="#5e9624"></stop></linearGradient><linearGradient id="b3c2bc94-8c7c-48a2-9719-6ee899a43a97" x1="6.18" y1="8.59" x2="7.81" y2="10.23" href="#f020fb7e-2243-4501-8153-5d69bd3c34f7"></linearGradient><linearGradient id="e900c35d-0958-4d4f-b28f-302eeaaf52f5" x1="2.48" y1="8.59" x2="4.11" y2="10.23" href="#f020fb7e-2243-4501-8153-5d69bd3c34f7"></linearGradient></defs><title>Icon-networking-61</title><circle cx="12.74" cy="8.99" r="1.16" fill="url(#f020fb7e-2243-4501-8153-5d69bd3c34f7)"></circle><circle cx="9.04" cy="9" r="1.16" fill="url(#b3c2bc94-8c7c-48a2-9719-6ee899a43a97)"></circle><circle cx="5.34" cy="9" r="1.16" fill="url(#e900c35d-0958-4d4f-b28f-302eeaaf52f5)"></circle><path d="M2.61,7.28h.94a.3.3,0,0,1,.3.3v6.94a.6.6,0,0,1-.6.6H2.31a0,0,0,0,1,0,0V7.58a.3.3,0,0,1,.3-.3Z" transform="translate(13.18 16.93) rotate(134.92)" fill="#50e6ff"></path><path d="M2.56,2.91H3.5a.3.3,0,0,1,.3.3v7.43a0,0,0,0,1,0,0H2.86a.6.6,0,0,1-.6-.6V3.21a.3.3,0,0,1,.3-.3Z" transform="translate(5.66 -0.16) rotate(44.92)" fill="#1490df"></path><path d="M14.15,7.28h.94a.6.6,0,0,1,.6.6v6.94a.3.3,0,0,1-.3.3h-.94a.3.3,0,0,1-.3-.3V7.28a0,0,0,0,1,0,0Z" transform="translate(12.32 -7.28) rotate(45.08)" fill="#50e6ff"></path><path d="M14.81,2.91h.94a0,0,0,0,1,0,0v7.43a.3.3,0,0,1-.3.3H14.5a.3.3,0,0,1-.3-.3V3.51a.6.6,0,0,1,.6-.6Z" transform="translate(30.36 0.99) rotate(135.08)" fill="#1490df"></path></svg><rect height="30" width="30" class="clear-rect"><title>vnet-spoke2-dev</title></rect></svg><g aria-hidden="false" transform="translate(0, 43)" class="node-title" style="font-size: 15px;"><text y="0" x="0" class="text"><title>vnet-spoke2-dev</title><tspan>vnet-spoke2-dev</tspan></text></g></a><svg aria-hidden="false" x="14" y="-28" height="37.5" width="37.5"><a role="button" class="cursor-pointer" aria-label="Expand" tabindex="0"><svg height="15" width="15" viewBox="0 0 16 16" fill="none" xmlns="http://www.w3.org/2000/svg"><circle cx="8" cy="8" r="8" fill="#0078D4"></circle><path d="M8.53353 7.46662V3.19995H7.46686V7.46662H3.2002V8.53328H7.46686V12.8H8.53353V8.53328H12.8002V7.46662H8.53353Z" fill="white"></path></svg></a></svg></g></g></g></g></g></svg></g><g transform="translate(-399,-92.25)" id="warning" visibility="hidden"><foreignObject x="13" y="0" width="768" height="184.5"><div style="background-color: white;"><div class="node-warning-heading"><span> Attention! </span></div><div class="node-warning-body"><p>You have expanded more nodes than what can be legible viewed in this visualization, you can switch to table view</p><div class="ms-Stack css-302"><button type="button" class="ms-Link root-303"> Continue with graphical</button><button type="button" class="ms-Link root-303"> Switch to table view</button></div></div></div></foreignObject></g></g></g></g></g></g><style>.edge-path{fill: none; stroke: #B3B0AD; stroke-width: 2; opacity: 0.5;}
                        .contrast-circle, .inner-circle{fill: #fff; stroke: #B0C4DE; stroke-width: 2;}
                        .clear-rect {fill: transparent;}
                        .pill {fill: #B3B0AD; stroke: #B3B0AD; stroke-width: 2;}
                        .pill-text {fill: #ffffff;}
                        .bg-circle {fill: #fff; stroke: #B0C4DE}
                        .healthy-edge-path {stroke: #57A300;}
                        .unhealthy-edge-path {stroke: #E00B1C;}
                        .unknown-health-edge-path {stroke: #7A7A7A;}
                        .warning-edge-path {stroke: #FF8C00;}
                        .large-expanded-group .group-header .header-outer-rect {fill: transparent;}
                        .node-title .sub-text {font-size: 12px; fill: rgb(75, 75, 75); text-transform: uppercase;}
                        .node-title text {font-size: 15px;text-anchor: middle;}
                        .resource-node .node-title { text-shadow: 0px 0px 2px white, 0px 0px 4px white, 0px 0px 6px white, 0px 0px 8px white, 0px 0px 10px white, 0px 0px 12px white, 0px 0px 14px white, 0px 0px 16px white;}
                        .large-expanded-group .group-header .node-title text {text-anchor: start;font-family: Segoe UI;font-style: normal;font-weight: 600;font-size: 18px;line-height: 24px;}
                        .large-expanded-group .group-header .node-title .sub-text {text-anchor: start;font-family: Segoe UI;font-style: normal;font-weight: normal;font-size: 12px;line-height: 16px;stroke: #605e5c;}
                        .msportalfx-svg-c14 {fill: #57a300;}
                        .msportalfx-svg-c01 {fill: #fff;}
                        .small-expanded-group .group-header .header-outer-rect {fill: #dce4ef;}
                        .small-expanded-group .group-header .node-title text { text-anchor: start; font-family: Segoe UI; font-style: normal; font-weight: normal; font-size: 12px; line-height: 18px;}
                        .small-expanded-group .group-header .node-title .sub-text { text-anchor: start; font-family: Segoe UI; font-style: normal; font-weight: normal; font-size: 11px; line-height: 16px; stroke: #605e5c;}</style></svg>